<svg width="1251" height="1042" viewBox="0 0 1251 1042" fill="none" xmlns="http://www.w3.org/2000/svg">
<path fill-rule="evenodd" clip-rule="evenodd" d="M869.346 0.461426H834.731V35.0768H810.703V0.461426H776.087H741.472V35.0768H706.857V0.461426H672.241H637.626V35.0768H603.01V0.461426H568.395H533.78H499.164V35.0768H464.549V69.6922V104.308H499.164V138.923H533.78V173.538H499.164V208.154H533.78H568.395V173.538V138.923H533.78V104.308H499.164V69.6922V35.0768H533.78H568.395H603.01V69.6922V104.308V138.923V173.538V208.154V242.769V277.385H568.395V312H603.01V277.385H637.626V312H672.241V277.385H706.857H741.472V312H776.087V277.385H800.115H810.703H834.731V312H869.346H903.962V277.385H938.577V242.769H973.192V208.154V173.538V138.923V104.308H938.577V69.6922V35.0768H973.192H1007.81V69.6922V104.308H1042.42V138.923V173.538V208.154V242.769V277.385H1007.81V312H1042.42V277.385H1077.04V242.769V208.154V173.538V138.923V104.308H1042.42V69.6922H1077.04V35.0768H1111.65H1146.27V69.6922V104.308V138.923V173.538V208.154V242.769V277.385V312H1180.88V277.385V242.769V208.154V173.538V138.923V104.308V69.6922V35.0768H1146.27V0.461426H1111.65H1077.04V35.0768H1042.42H1007.81V0.461426H973.192H938.577V35.0768H903.962V0.461426H869.346ZM938.577 104.308V138.923V173.538V208.154V242.769H903.962V277.385H869.346V242.769H834.731H810.703H800.115H776.087V277.385H741.472V242.769V208.154V173.538V138.923V104.308V69.6922V35.0768H776.087H800.115V69.6922V104.308V138.923H834.731V173.538H800.115V208.154H834.731H869.346V173.538V138.923H834.731V104.308V69.6922V35.0768H869.346V69.6922H903.962V104.308H938.577ZM672.241 277.385V242.769H706.857V208.154V173.538V138.923V104.308V69.6922V35.0768H672.241H637.626V69.6922V104.308V138.923V173.538V208.154V242.769V277.385H672.241ZM336.303 400.077H311.937V365.461H277.322V400.077H242.706H208.091H173.475V365.461H138.86H104.245H69.6293H35.0139V400.077H0.39856V434.692V469.308H35.0139V503.923H69.6293H104.245V469.308H69.6293H35.0139V434.692V400.077H69.6293H104.245H138.86V434.692H173.475H208.091H242.706H277.322V400.077H301.688V434.692V469.308H336.303V503.923H370.918H405.534V538.538V573.154V607.769V642.385H370.918H336.303V607.769H370.918V573.154H336.303H301.688V607.769V642.385H336.303V677H370.918H405.534V642.385H440.149V607.769V573.154V538.538H474.765V503.923H509.38H543.995H578.611V538.538V573.154V607.769V642.385H543.995V677H509.38V711.615H474.765V746.231V765.077H464.549V799.692V834.308H499.164V868.923H533.78V903.538H499.164V938.154H533.78H568.395V903.538V868.923H533.78V834.308H499.164V799.692V780.846H509.38H543.995V765.077H568.395H603.01V799.692V834.308V868.923V903.538V938.154V972.769V1007.38H568.395V1042H603.01V1007.38H637.626V1042H672.241V1007.38H706.857H741.472V1042H776.087V1007.38H800.115H810.703H834.731V1042H869.346H903.962V1007.38H938.577V972.769H973.192V938.154V903.538V868.923V834.308H938.577V799.692V765.077H973.192H1007.81V799.692V834.308H1042.42V868.923V903.538V938.154V972.769V1007.38H1007.81V1042H1042.42V1007.38H1077.04V972.769V938.154V903.538V868.923V834.308H1042.42V799.692H1077.04V765.077H1111.65H1146.27V799.692V834.308V868.923V903.538V938.154V972.769V1007.38V1042H1180.88V1007.38V972.769V938.154V903.538V868.923V834.308V799.692V765.077H1146.27V730.461H1111.65H1077.04V765.077H1042.42H1007.81V730.461H973.192H938.577V765.077H903.962V730.461H869.346H834.731V765.077H810.703V730.461H776.087H741.472V765.077H706.857V730.461H672.241H637.626V765.077H603.01V730.461H568.395H533.78H509.38V711.615H543.995V677H578.611V642.385H613.226V607.769V573.154V538.538V503.923H578.611V469.308H543.995H509.38H474.765V503.923H440.149H405.534V469.308H370.918H336.303V434.692V400.077ZM440.149 400.077H405.534H370.918H336.303V365.461H370.918H405.534H440.149V400.077ZM509.38 400.077V434.692H474.765H440.149V400.077H474.765H509.38ZM509.38 400.077V365.461H474.765V330.846H509.38H543.995V365.461V400.077H509.38ZM637.626 765.077H672.241H706.857V799.692V834.308V868.923V903.538V938.154V972.769H672.241V1007.38H637.626V972.769V938.154V903.538V868.923V834.308V799.692V765.077ZM834.731 868.923V834.308V799.692V765.077H869.346V799.692H903.962V834.308H938.577V868.923V903.538V938.154V972.769H903.962V1007.38H869.346V972.769H834.731H810.703H800.115H776.087V1007.38H741.472V972.769V938.154V903.538V868.923V834.308V799.692V765.077H776.087H800.115V799.692V834.308V868.923H834.731ZM834.731 868.923V903.538H800.115V938.154H834.731H869.346V903.538V868.923H834.731ZM973.159 400.077H949.131V365.461H914.515H879.9V400.077H845.284V365.461H810.669H776.054V400.077H741.438V365.461H706.823H672.207H637.592V400.077H602.977V434.692V469.308H637.592V503.923H672.207V538.538H637.592V573.154H672.207H706.823V538.538V503.923H672.207V469.308H637.592V434.692V400.077H672.207H706.823H741.438V434.692V469.308V503.923V538.538V573.154V607.769V642.385H706.823V677H741.438V642.385H776.054V677H810.669V642.385H845.284H879.9V677H914.515V642.385H949.131V607.769H914.515V642.385H879.9V607.769V573.154V538.538V503.923V469.308V434.692V400.077H914.515H938.543V434.692V469.308H973.159V503.923H1007.77H1042.39V469.308H1007.77H973.159V434.692V400.077ZM1215.47 400.077V434.692H1180.85H1146.24H1111.62H1077V400.077H1042.39H1007.77H973.159V365.461H1007.77H1042.39H1077H1111.62V400.077H1146.24H1180.85H1215.47ZM1215.47 400.077V365.461H1250.08V400.077H1215.47ZM810.669 642.385V607.769H845.284V573.154V538.538V503.923V469.308V434.692V400.077H810.669H776.054V434.692V469.308V503.923V538.538V573.154V607.769V642.385H810.669ZM1146.24 469.308H1111.62H1077V503.923V538.538H1111.62V573.154H1077V607.769H1042.39V642.385H1007.77V677H1042.39V642.385H1077V677H1111.62H1146.24H1180.85V642.385H1215.47V607.769H1180.85V642.385H1146.24H1111.62H1077V607.769H1111.62H1146.24V573.154V538.538H1111.62V503.923H1146.24V469.308ZM104.448 799.692V834.308H69.8322V799.692V765.077H104.448V799.692ZM208.294 765.077H173.678H139.063H104.448V730.461H139.063H173.678H208.294V765.077ZM277.524 765.077H242.909H208.294V799.692H242.909H277.524V834.308H242.909V868.923H277.524V903.538H312.14V938.154V972.769V1007.38H277.524H242.909H208.294H173.678V972.769H139.063V938.154H104.448H69.8322V972.769V1007.38H104.448V972.769H139.063V1007.38H173.678V1042H208.294H242.909H277.524H312.14V1007.38H346.755V972.769V938.154V903.538H312.14V868.923H346.755V834.308H312.14V799.692H346.755V765.077V730.461H312.14H277.524V765.077ZM277.524 765.077V799.692H312.14V765.077H277.524ZM312.14 834.308H277.524V868.923H312.14V834.308ZM139.063 834.308H104.448V868.923H139.063V834.308ZM139.063 834.308H173.678V799.692H139.063V834.308ZM173.475 469.308H208.091V503.923H173.475V538.538H138.86V503.923V469.308H173.475ZM138.86 607.769V573.154H173.475V538.538H208.091V573.154V607.769H173.475H138.86ZM138.86 642.385V607.769H104.245V642.385H69.6293V677H104.245V642.385H138.86ZM242.706 642.385V677H208.091H173.475H138.86V642.385H173.475H208.091H242.706ZM242.706 642.385V607.769H277.322V642.385H242.706ZM104.448 104.308V69.6922V35.0768H139.063H173.678H208.294V69.6922H242.909H277.524V104.308H242.909V138.923H277.524V173.538H312.14V208.154V242.769V277.385H277.524H242.909H208.294H173.678V242.769H139.063V208.154H104.448H69.8322V242.769V277.385H104.448V242.769H139.063V277.385H173.678V312H208.294H242.909H277.524H312.14V277.385H346.755V242.769V208.154V173.538H312.14V138.923H346.755V104.308H312.14V69.6922H346.755V35.0768V0.461426H312.14H277.524V35.0768H242.909H208.294V0.461426H173.678H139.063H104.448V35.0768H69.8322V69.6922V104.308H104.448ZM139.063 104.308V138.923H104.448V104.308H139.063ZM139.063 104.308V69.6922H173.678V104.308H139.063ZM277.524 35.0768H312.14V69.6922H277.524V35.0768ZM312.14 104.308V138.923H277.524V104.308H312.14Z" fill="white"/>
</svg>
